<svg width="150" height="150" viewBox="0 0 100 100" xmlns="http://www.w3.org/2000/svg">
  <path d="M 85,50 A 35,35 0 1 1 50,15" stroke="#1c1c1c" stroke-width="8" stroke-linecap="round" fill="none"/>

  <g transform="translate(50,50)">
    <circle r="10" fill="#1c1c1c"/>

    <g fill="#e60000">
      <path d="M0,0 L0,-32 A32,32 0 0 1 27.7,-16 Z" transform="rotate(0)"/>
      <path d="M0,0 L0,-32 A32,32 0 0 1 27.7,-16 Z" transform="rotate(120)"/>
      <path d="M0,0 L0,-32 A32,32 0 0 1 27.7,-16 Z" transform="rotate(240)"/>
    </g>

    <g fill="#1c1c1c">
      <path d="M0,0 L0,-22 A22,22 0 0 1 19.1,-11 Z" transform="rotate(60)"/>
      <path d="M0,0 L0,-22 A22,22 0 0 1 19.1,-11 Z" transform="rotate(180)"/>
      <path d="M0,0 L0,-22 A22,22 0 0 1 19.1,-11 Z" transform="rotate(300)"/>
    </g>
  </g>
</svg>